<?xml version="1.0" standalone="no"?>
<!DOCTYPE svg PUBLIC "-//W3C//DTD SVG 20010904//EN"
 "http://www.w3.org/TR/2001/REC-SVG-20010904/DTD/svg10.dtd">
<svg version="1.0" xmlns="http://www.w3.org/2000/svg"
 width="2000.000000pt" height="2000.000000pt" viewBox="0 0 2000.000000 2000.000000"
 preserveAspectRatio="xMidYMid meet">
<metadata>
Created by potrace 1.14, written by Peter Selinger 2001-2017
</metadata>
<g transform="translate(0.000000,2000.000000) scale(0.100000,-0.100000)"
fill="#000000" stroke="none">
<path d="M9648 18235 c-2 -1 -61 -6 -133 -9 -71 -4 -148 -8 -170 -11 -22 -2
-71 -6 -110 -10 -107 -9 -221 -21 -365 -41 -25 -3 -56 -7 -70 -9 -244 -30
-715 -130 -1055 -224 -305 -84 -783 -255 -1045 -373 -36 -16 -92 -41 -125 -56
-114 -50 -461 -225 -595 -300 -395 -220 -798 -492 -1164 -785 -52 -42 -230
-190 -236 -197 -3 -3 -45 -41 -95 -85 -99 -88 -329 -311 -434 -419 -36 -38
-77 -81 -91 -95 -14 -14 -61 -66 -105 -116 -44 -49 -82 -92 -86 -95 -8 -8
-201 -240 -244 -295 -22 -27 -42 -52 -45 -55 -3 -3 -32 -41 -65 -86 -61 -81
-70 -93 -138 -187 -20 -29 -41 -57 -46 -63 -5 -6 -60 -89 -123 -185 -157 -238
-241 -378 -406 -679 -253 -462 -525 -1146 -668 -1680 -21 -78 -74 -281 -79
-305 -38 -174 -69 -327 -85 -422 -12 -65 -23 -129 -26 -143 -2 -14 -7 -43 -9
-65 -3 -22 -8 -51 -10 -65 -5 -31 -22 -167 -30 -235 -3 -27 -8 -63 -10 -80 -2
-16 -6 -64 -10 -105 -3 -41 -8 -95 -10 -120 -27 -321 -27 -1027 -1 -1290 2
-19 7 -73 11 -120 4 -47 8 -98 10 -115 2 -16 7 -55 10 -85 15 -135 45 -341 70
-475 8 -44 17 -93 19 -110 3 -16 15 -75 26 -130 12 -55 24 -111 26 -125 11
-55 97 -391 125 -490 31 -107 168 -525 187 -570 6 -14 35 -88 66 -165 54 -139
92 -231 157 -375 35 -80 244 -498 282 -565 132 -234 224 -386 366 -600 110
-166 330 -470 432 -595 105 -128 211 -253 324 -379 54 -62 504 -512 575 -577
70 -63 257 -222 355 -301 50 -40 95 -76 100 -81 55 -45 278 -208 390 -285 77
-53 145 -101 152 -107 6 -5 27 -18 45 -28 18 -11 71 -44 118 -74 383 -247 895
-505 1380 -695 173 -68 579 -206 715 -243 288 -79 627 -158 787 -185 29 -5 85
-14 175 -30 16 -3 62 -9 103 -15 41 -6 86 -12 100 -14 14 -3 68 -10 120 -16
52 -6 109 -13 125 -15 17 -2 66 -6 110 -10 44 -3 94 -8 110 -10 97 -12 354
-20 665 -20 412 1 614 11 910 46 47 5 103 12 125 15 70 8 117 15 275 40 199
32 212 34 230 39 8 2 29 7 45 10 42 7 60 11 171 35 55 12 108 23 119 26 44 8
307 77 420 110 229 66 677 223 849 298 17 7 60 26 96 41 151 65 263 117 445
208 135 68 176 89 315 165 83 45 405 238 445 266 16 12 37 26 46 31 102 60
575 403 679 492 14 12 61 52 105 89 236 198 273 232 535 492 193 192 282 285
398 420 13 15 33 38 46 52 26 30 199 242 238 291 14 19 47 61 72 94 25 33 49
65 53 70 69 85 301 430 418 620 229 371 451 817 633 1270 37 93 141 378 146
400 1 6 15 48 30 95 41 126 95 307 121 410 3 8 13 51 25 94 11 44 22 89 24
100 2 12 9 39 14 61 13 50 79 376 87 430 4 22 8 47 10 55 2 8 7 35 10 60 3 25
8 52 10 60 4 15 40 292 49 380 33 321 41 499 41 900 -1 314 -6 478 -20 630 -2
25 -7 77 -10 115 -8 91 -13 137 -30 270 -8 61 -17 130 -20 155 -3 25 -9 70
-15 100 -5 30 -11 71 -14 91 -3 20 -7 42 -10 50 -3 8 -7 32 -10 54 -2 22 -7
47 -10 55 -3 8 -7 31 -10 50 -13 83 -46 231 -87 395 -17 66 -32 128 -34 138
-2 10 -25 91 -51 180 -103 357 -258 776 -414 1117 -49 107 -240 488 -278 555
-9 17 -33 57 -51 90 -172 302 -465 744 -640 965 -20 24 -41 51 -48 60 -225
283 -389 467 -657 735 -243 242 -283 280 -411 390 -82 71 -111 96 -145 125
-14 12 -40 34 -59 48 -31 25 -90 72 -133 107 -10 8 -70 54 -135 103 -754 567
-1582 992 -2484 1276 -243 76 -633 177 -819 211 -14 3 -59 11 -100 19 -41 9
-88 17 -105 20 -16 3 -57 10 -90 16 -33 5 -78 13 -100 16 -22 2 -51 7 -65 9
-58 10 -340 43 -425 50 -37 4 -178 15 -259 22 -69 5 -843 13 -848 8z m807
-1409 c22 -2 78 -7 125 -11 47 -3 96 -8 110 -10 14 -3 50 -7 80 -9 30 -3 71
-7 90 -10 19 -3 70 -10 113 -16 43 -7 88 -13 100 -15 99 -17 205 -36 222 -39
234 -46 507 -115 720 -181 141 -44 456 -154 500 -174 11 -6 81 -35 155 -66
195 -82 494 -226 582 -282 21 -13 40 -23 44 -23 7 0 312 -179 329 -193 6 -4
60 -40 122 -80 98 -63 352 -242 401 -282 9 -8 46 -37 82 -65 132 -105 170
-136 236 -195 6 -5 42 -37 80 -70 142 -123 505 -492 633 -644 45 -53 53 -55
106 -30 65 30 184 47 310 44 140 -3 171 -7 255 -32 190 -56 373 -215 425 -367
21 -62 18 -204 -7 -343 -18 -101 -87 -326 -127 -416 -11 -23 -31 -69 -45 -102
l-27 -61 84 -174 c124 -258 156 -334 248 -575 l56 -150 -486 -3 -486 -2 -20
-23 c-11 -12 -86 -110 -166 -217 -81 -107 -186 -247 -235 -310 -48 -63 -132
-176 -186 -250 -54 -74 -101 -139 -106 -145 -51 -69 -98 -160 -151 -292 -60
-150 -77 -205 -116 -358 -34 -134 -35 -147 -39 -315 -5 -165 8 -249 53 -345
55 -118 149 -183 276 -192 89 -6 156 12 275 73 122 63 391 246 500 340 14 12
86 73 161 135 185 156 374 315 390 331 20 19 160 131 189 151 161 110 284 179
405 227 105 42 118 45 202 45 81 0 113 -16 147 -75 21 -35 26 -122 13 -207
-16 -99 -103 -301 -194 -453 -41 -67 -169 -259 -200 -300 -95 -124 -356 -394
-522 -540 -41 -36 -79 -69 -85 -75 -6 -5 -38 -32 -71 -60 -33 -27 -62 -52 -65
-55 -3 -3 -43 -37 -90 -75 -47 -38 -90 -74 -96 -80 -40 -35 -230 -183 -354
-275 -169 -125 -431 -297 -567 -371 -245 -134 -416 -204 -610 -250 -381 -91
-703 5 -903 269 -51 67 -136 231 -176 337 -4 11 -8 25 -10 30 -1 6 -15 51 -29
100 -15 50 -38 137 -51 194 -12 57 -25 105 -27 108 -3 2 -12 -3 -20 -12 -9 -8
-18 -15 -22 -15 -4 0 -13 -6 -20 -12 -8 -7 -29 -23 -47 -36 -18 -13 -86 -61
-150 -108 -386 -277 -879 -583 -1199 -744 -64 -32 -124 -63 -135 -69 -22 -12
-82 -38 -289 -126 -105 -45 -360 -121 -465 -139 -281 -47 -560 -13 -796 98
-197 94 -365 239 -493 429 -80 118 -201 396 -201 461 0 8 -4 18 -10 21 -8 5
-198 -134 -415 -303 -5 -4 -154 -117 -330 -250 -176 -133 -390 -295 -475 -360
-85 -65 -276 -209 -425 -322 -253 -191 -474 -367 -590 -469 -43 -38 -85 -91
-85 -106 0 -3 2117 -5 4705 -5 2588 0 4705 -2 4705 -5 0 -27 -226 -482 -312
-628 -32 -54 -58 -100 -58 -102 0 -8 -107 -177 -226 -355 -100 -151 -344 -480
-388 -526 -6 -6 -27 -30 -46 -54 -19 -24 -39 -48 -45 -54 -5 -6 -43 -49 -84
-96 -89 -101 -465 -478 -570 -570 -41 -36 -79 -70 -85 -75 -75 -69 -395 -317
-558 -432 -78 -55 -373 -245 -398 -256 -8 -4 -31 -17 -50 -29 -255 -156 -726
-383 -1015 -488 -27 -10 -88 -32 -135 -50 -300 -111 -836 -254 -1105 -294 -22
-4 -78 -13 -125 -21 -103 -17 -137 -22 -215 -31 -33 -3 -67 -8 -75 -9 -8 -2
-51 -6 -95 -10 -44 -4 -91 -8 -105 -10 -181 -27 -930 -27 -1175 0 -22 2 -69 7
-105 10 -36 3 -81 8 -100 11 -19 2 -53 6 -75 9 -122 13 -348 50 -525 86 -152
31 -513 125 -655 170 -193 61 -436 148 -449 160 -6 5 -15 9 -22 9 -38 0 -569
247 -779 363 -221 122 -434 255 -660 415 -125 88 -350 259 -391 297 -6 5 -31
26 -55 47 -148 123 -227 196 -434 403 -196 195 -268 271 -337 353 -22 26 -33
32 -55 28 -266 -43 -475 -10 -627 98 -241 171 -269 410 -89 764 l54 105 -26
38 c-14 21 -25 40 -25 43 0 2 -24 46 -53 97 -90 158 -287 561 -287 585 0 2
236 4 525 4 l524 0 88 78 c48 42 93 82 99 87 20 19 134 109 389 309 121 96
622 469 705 526 126 87 167 122 184 156 111 231 270 653 381 1013 7 22 6 23
-14 9 -12 -8 -36 -28 -54 -44 -17 -16 -68 -58 -112 -94 -44 -36 -82 -68 -85
-71 -3 -3 -72 -56 -155 -117 -82 -62 -154 -116 -160 -120 -25 -20 -338 -224
-406 -264 -175 -106 -512 -282 -664 -348 -130 -57 -255 -105 -344 -132 -35
-11 -72 -22 -82 -24 -11 -2 -29 -6 -42 -9 -282 -68 -563 -37 -812 87 -160 81
-352 234 -454 363 -138 176 -249 408 -287 600 -23 118 -28 174 -28 325 0 188
12 276 60 420 78 232 230 438 464 630 30 25 57 47 60 50 26 31 311 229 435
305 194 118 539 298 695 364 30 13 73 32 95 42 22 10 92 39 155 64 582 234
1149 407 1575 480 17 2 39 7 50 9 18 4 196 28 290 41 22 2 114 8 205 11 153 6
170 5 211 -13 47 -21 171 -135 226 -208 84 -111 159 -262 168 -341 5 -41 3
-53 -15 -72 -35 -37 -87 -52 -219 -63 -332 -26 -753 -143 -1117 -310 -137 -63
-335 -158 -383 -185 -110 -60 -339 -199 -426 -258 -86 -58 -284 -203 -295
-216 -3 -3 -18 -16 -35 -29 -150 -115 -307 -280 -351 -369 -55 -109 -40 -193
39 -228 67 -31 210 -26 317 9 88 29 280 120 480 227 63 34 162 87 220 117 58
31 137 73 175 93 39 20 115 61 170 90 293 155 379 213 615 420 34 30 83 73
108 95 25 22 53 47 62 55 144 138 383 276 487 282 5 0 19 5 33 10 14 5 66 11
115 13 72 3 102 0 150 -17 163 -56 352 -269 399 -448 7 -30 14 -93 14 -140 0
-82 -26 -292 -46 -375 -58 -231 -99 -376 -121 -430 -5 -11 -24 -63 -41 -115
-29 -84 -79 -214 -149 -389 l-22 -54 53 44 c29 25 127 106 218 179 91 74 192
157 226 185 128 106 158 130 178 145 12 8 26 19 32 25 6 5 24 20 40 32 16 12
88 68 159 123 72 56 146 113 165 128 19 15 40 32 46 37 6 6 23 19 38 30 15 11
85 65 155 120 70 55 143 111 161 125 30 23 134 104 170 133 8 7 53 41 100 77
47 36 87 67 90 70 3 3 30 24 60 48 30 23 61 47 69 53 68 58 202 136 283 165
37 13 157 21 184 12 5 -2 74 36 154 83 80 48 179 105 220 128 120 66 506 255
615 301 55 23 118 50 140 60 198 89 715 271 950 335 55 15 163 45 240 67 244
70 277 78 349 80 196 6 435 -46 489 -106 44 -49 37 -101 -59 -387 -71 -213
-80 -232 -115 -262 -46 -40 -224 -128 -403 -201 -223 -91 -535 -240 -688 -328
-31 -18 -87 -50 -125 -72 -76 -43 -116 -68 -318 -202 -143 -95 -163 -110 -250
-193 -104 -101 -176 -195 -207 -277 -30 -75 -9 -172 44 -206 59 -37 187 -47
277 -23 170 46 421 175 846 433 308 187 649 421 745 510 14 13 51 119 115 328
52 170 118 377 146 459 28 83 52 155 53 160 2 6 5 17 8 25 3 8 29 80 58 160
42 116 103 273 187 477 4 10 -1016 13 -5065 15 l-5070 3 53 140 c208 554 506
1111 852 1592 85 117 263 348 307 396 11 13 32 37 45 53 186 226 623 654 860
844 24 19 49 40 55 46 6 6 81 63 166 127 85 65 160 121 165 125 32 26 376 249
470 304 160 95 219 127 425 231 376 191 708 321 1170 460 160 48 543 137 698
162 17 3 47 7 65 10 17 3 46 8 62 11 17 2 41 6 55 9 14 3 45 7 70 10 25 3 61
7 80 10 19 3 53 7 75 10 22 2 72 7 110 11 39 3 84 8 100 9 17 2 89 7 160 11
72 3 132 8 133 10 6 4 711 -5 757 -10z"/>
<path d="M12397 6684 c-1 -1 -27 -4 -57 -8 -77 -9 -180 -46 -181 -65 -1 -22
-1 -111 0 -137 1 -22 2 -22 76 7 122 48 238 51 283 8 27 -24 29 -75 4 -106
-17 -21 -36 -32 -192 -106 -154 -74 -189 -124 -193 -278 -2 -63 1 -103 7 -107
6 -4 143 -7 304 -7 l292 0 1 25 c0 14 1 50 1 80 l1 55 -199 2 c-110 1 -205 2
-212 2 -9 1 -8 7 4 26 15 23 66 51 224 122 123 56 170 119 174 232 6 162 -81
243 -272 254 -34 2 -63 3 -65 1z"/>
<path d="M13118 6684 c-2 -1 -20 -4 -41 -7 -57 -7 -139 -53 -170 -94 -49 -66
-62 -130 -61 -308 0 -142 3 -167 23 -218 49 -124 122 -168 287 -173 261 -9
353 92 358 391 5 283 -87 402 -319 409 -41 2 -76 2 -77 0z m152 -199 c26 -24
43 -92 45 -190 3 -108 -13 -177 -49 -213 -23 -24 -34 -27 -91 -27 -57 0 -68 3
-91 27 -59 58 -66 317 -12 391 32 44 155 51 198 12z"/>
<path d="M13830 6678 c-35 -4 -92 -17 -126 -29 l-63 -22 -3 -74 c-2 -41 -1
-80 2 -87 4 -10 22 -7 79 16 135 54 286 45 299 -17 13 -67 -7 -92 -114 -144
-49 -24 -108 -53 -132 -64 -66 -32 -119 -82 -136 -130 -15 -39 -28 -235 -16
-238 3 -1 137 -2 298 -3 190 -1 296 2 300 9 4 5 7 42 7 81 l0 72 -195 0 c-107
1 -201 1 -207 2 -7 0 -13 4 -13 9 0 23 63 65 173 113 191 83 241 147 232 296
-5 74 -31 127 -80 160 -67 46 -180 65 -305 50z"/>
<path d="M14449 6659 c-13 -10 -28 -19 -32 -19 -8 0 -78 -49 -87 -62 -7 -9 -5
-197 3 -205 4 -3 33 13 66 35 33 23 63 42 68 42 5 0 8 -125 8 -277 l0 -278 98
-3 97 -3 0 394 -1 393 -98 1 c-81 0 -102 -3 -122 -18z"/>
<path d="M11342 6656 c-3 -6 -7 -13 -8 -16 0 -5 -21 -80 -30 -112 -3 -11 -15
-16 -37 -16 -65 1 -62 4 -61 -77 0 -41 4 -78 7 -81 4 -4 21 -7 38 -8 l31 -1 2
-175 c2 -196 11 -231 69 -265 26 -17 50 -20 137 -20 58 0 113 3 123 7 14 6 17
21 17 92 l0 84 -58 -5 c-87 -7 -86 -10 -83 235 l1 52 58 -1 c31 -1 62 -1 68 0
12 1 14 153 1 162 -4 3 -35 5 -68 4 l-59 -3 -1 47 c0 25 -2 60 -2 76 l-2 30
-68 1 c-40 1 -70 -3 -75 -10z"/>
<path d="M10839 6526 c-2 -2 -33 -6 -69 -9 -91 -8 -139 -28 -174 -70 -25 -31
-30 -47 -32 -99 -5 -133 43 -181 212 -213 54 -10 109 -22 122 -26 27 -10 29
-44 4 -58 -36 -19 -244 -9 -324 15 -15 4 -17 -5 -16 -75 0 -65 3 -81 17 -86
46 -14 161 -23 281 -21 122 2 141 4 185 26 66 33 87 70 88 158 1 51 -4 77 -19
103 -21 37 -84 73 -146 83 -54 8 -128 25 -165 37 -39 12 -44 42 -12 60 36 19
215 12 275 -11 14 -6 29 -10 33 -10 5 0 9 36 10 80 2 79 2 79 -26 86 -15 3
-34 7 -41 10 -7 2 -52 6 -100 10 -48 3 -90 8 -93 10 -3 2 -8 2 -10 0z"/>
<path d="M10012 6503 c-129 -43 -185 -143 -177 -316 7 -170 50 -240 175 -287
51 -18 280 -21 356 -3 l60 14 0 75 -1 75 -40 -7 c-67 -10 -196 -11 -255 -2
-42 6 -61 15 -83 39 -15 16 -25 34 -23 38 3 5 96 8 207 7 110 -1 206 2 212 6
8 5 12 40 12 100 -1 139 -37 206 -134 251 -64 28 -236 34 -309 10z m215 -143
c17 -6 35 -22 42 -36 24 -53 22 -54 -119 -54 -125 0 -130 1 -130 21 0 11 13
34 29 50 26 26 37 29 89 29 32 0 73 -5 89 -10z"/>
</g>
</svg>
