<?xml version="1.0" standalone="no"?>
<!DOCTYPE svg PUBLIC "-//W3C//DTD SVG 20010904//EN"
 "http://www.w3.org/TR/2001/REC-SVG-20010904/DTD/svg10.dtd">
<svg version="1.0" xmlns="http://www.w3.org/2000/svg"
 width="1000.000000pt" height="1000.000000pt" viewBox="0 0 1000.000000 1000.000000"
 preserveAspectRatio="xMidYMid meet">
<metadata>
Created by potrace 1.14, written by Peter Selinger 2001-2017
</metadata>
<g transform="translate(0.000000,1000.000000) scale(0.100000,-0.100000)"
fill="#000000" stroke="none">
<path d="M0 5000 l0 -5000 5000 0 5000 0 0 5000 0 5000 -5000 0 -5000 0 0
-5000z m5301 4120 c1358 -104 2556 -844 3250 -2007 525 -880 702 -1941 493
-2948 -235 -1131 -935 -2112 -1931 -2706 -880 -525 -1941 -702 -2948 -493
-1131 235 -2112 935 -2706 1931 -525 880 -702 1941 -493 2948 180 864 639
1659 1294 2238 702 622 1539 971 2490 1040 109 8 428 6 551 -3z"/>
<path d="M4785 8423 c-829 -55 -1613 -410 -2200 -998 -251 -251 -467 -547
-622 -850 -68 -134 -173 -370 -173 -389 0 -3 1145 -6 2544 -6 l2544 0 -55
-132 c-51 -124 -170 -471 -224 -654 l-24 -81 -80 -60 c-167 -126 -433 -290
-594 -366 -88 -42 -116 -51 -177 -55 -68 -4 -74 -3 -98 21 -32 32 -33 64 -5
119 49 96 175 197 415 335 113 65 203 108 447 214 53 23 108 52 121 64 27 25
96 223 98 282 2 59 -47 81 -198 90 -98 6 -129 -1 -449 -99 -266 -81 -632 -242
-850 -373 -64 -38 -88 -47 -121 -46 -28 1 -59 -8 -105 -31 -59 -30 -650 -485
-948 -730 -74 -61 -122 -94 -118 -82 3 10 29 82 57 159 100 269 140 490 106
584 -23 63 -86 142 -143 180 -46 32 -51 33 -133 29 -121 -6 -181 -37 -350
-184 -74 -64 -160 -133 -190 -154 -80 -54 -597 -327 -665 -350 -78 -27 -168
-27 -195 0 -72 72 64 228 375 432 283 187 618 317 902 352 120 15 143 25 143
61 0 35 -65 155 -114 211 -66 75 -98 87 -204 79 -229 -17 -442 -62 -699 -146
-653 -213 -1131 -505 -1262 -771 -56 -112 -74 -206 -68 -333 10 -191 77 -337
216 -475 140 -139 290 -198 468 -186 248 16 718 261 1080 562 43 35 79 61 81
56 4 -14 -85 -267 -140 -398 l-52 -121 -130 -94 c-172 -124 -464 -351 -550
-428 l-69 -61 -249 0 -248 0 64 -128 c35 -70 78 -151 95 -180 l30 -51 -36 -78
c-67 -143 -56 -266 28 -337 72 -61 104 -71 236 -73 l122 -1 153 -154 c344
-344 743 -607 1186 -783 790 -311 1704 -311 2494 0 774 306 1424 893 1796
1623 l83 162 -2345 0 c-1705 0 -2346 3 -2346 11 0 28 152 152 632 516 285 216
522 394 528 395 7 2 19 -22 29 -52 97 -309 382 -492 696 -450 247 34 662 243
1081 545 58 42 111 78 118 81 7 3 21 -35 38 -101 38 -148 87 -247 159 -316 83
-82 143 -104 284 -103 92 0 123 5 191 27 219 72 469 234 809 522 258 219 399
383 497 581 42 84 51 114 55 170 5 59 2 73 -15 94 -32 39 -96 34 -202 -17
-109 -52 -171 -96 -377 -271 -358 -304 -495 -377 -605 -323 -130 63 -144 276
-37 561 48 128 46 124 288 447 l196 262 208 0 c114 1 207 4 207 7 0 12 -92
228 -128 301 l-39 78 24 55 c67 149 103 327 82 403 -15 55 -89 131 -165 168
-82 41 -208 51 -299 25 l-58 -17 -60 68 c-412 470 -1004 848 -1601 1022 -381
112 -807 159 -1191 134z m1774 -5067 c28 -15 51 -53 51 -87 0 -39 -43 -105
-109 -166 l-66 -63 37 0 c20 0 60 5 88 11 56 12 75 4 64 -24 -5 -15 -23 -17
-124 -17 -76 0 -121 4 -126 11 -3 6 22 40 58 78 102 105 118 128 118 171 0 40
-20 70 -46 70 -8 0 -33 -9 -55 -21 -32 -16 -44 -18 -55 -8 -13 10 -12 14 2 30
27 30 117 38 163 15z m372 -24 c36 -40 53 -103 46 -173 -6 -69 -29 -114 -70
-139 -63 -39 -137 -19 -179 47 -19 32 -23 51 -23 118 0 92 17 134 68 166 49
31 122 22 158 -19z m303 27 c14 -7 33 -28 42 -47 29 -62 -9 -137 -114 -227
l-54 -45 44 0 c24 0 67 6 95 13 47 13 52 12 56 -4 3 -9 0 -22 -6 -28 -15 -15
-247 -15 -247 0 0 7 32 45 70 86 84 88 110 128 110 167 0 32 -25 66 -48 66 -8
0 -35 -10 -59 -22 -38 -19 -46 -20 -53 -8 -15 24 -12 30 23 45 39 17 107 19
141 4z m244 -168 c3 -177 -1 -197 -35 -184 -10 4 -13 41 -13 165 0 149 -1 160
-17 153 -41 -17 -53 -17 -53 -2 0 9 18 22 43 30 74 27 72 33 75 -162z m-1410
117 c3 -37 5 -38 41 -38 21 0 41 -3 44 -7 13 -13 -16 -33 -49 -33 l-34 0 0
-89 c0 -102 8 -116 64 -105 23 4 36 2 36 -4 0 -16 -67 -34 -100 -27 -48 11
-60 38 -60 137 0 87 0 88 -25 88 -15 0 -25 6 -25 15 0 8 11 17 25 21 20 5 25
12 25 38 0 39 7 48 35 44 15 -2 21 -12 23 -40z m-485 -49 c47 -22 67 -100 31
-126 -11 -8 -46 -13 -91 -13 -78 0 -86 -7 -58 -47 20 -28 78 -47 121 -39 41 8
47 -10 8 -24 -36 -14 -89 -12 -129 4 -95 40 -101 196 -11 240 37 18 95 20 129
5z m301 2 c11 -17 -6 -43 -23 -35 -9 4 -34 8 -56 8 -34 1 -40 -2 -43 -21 -3
-19 7 -28 65 -55 51 -25 70 -40 77 -61 13 -37 -18 -79 -68 -90 -49 -12 -126 8
-126 33 0 28 10 30 48 9 46 -24 78 -24 91 0 14 25 -4 46 -61 70 -82 35 -101
106 -38 138 29 15 126 17 134 4z"/>
<path d="M6807 3329 c-44 -26 -63 -170 -33 -244 27 -64 91 -71 126 -12 25 41
28 172 5 217 -24 46 -61 60 -98 39z"/>
<path d="M5466 3218 c-33 -46 -22 -58 50 -58 l66 0 -7 27 c-10 41 -24 53 -61
53 -23 0 -38 -7 -48 -22z"/>
</g>
</svg>
